<?xml version="1.0" encoding="UTF-8" standalone="no"?>
<svg
   xmlns:dc="http://purl.org/dc/elements/1.1/"
   xmlns:cc="http://creativecommons.org/ns#"
   xmlns:rdf="http://www.w3.org/1999/02/22-rdf-syntax-ns#"
   xmlns:svg="http://www.w3.org/2000/svg"
   xmlns="http://www.w3.org/2000/svg"
   xmlns:sodipodi="http://sodipodi.sourceforge.net/DTD/sodipodi-0.dtd"
   xmlns:inkscape="http://www.inkscape.org/namespaces/inkscape"
   width="30.48mm"
   height="128.5mm"
   viewBox="0 0 30.48 128.5"
   version="1.1"
   id="svg8"
   inkscape:version="1.0.1 (c497b03c, 2020-09-10)"
   sodipodi:docname="DDSP.svg">
  <defs
     id="defs2">
    <linearGradient
       id="b8b09e1c-faa9-4d01-91c8-df52100a3bde"
       x1="67.500008"
       x2="67.500008"
       y2="380"
       gradientUnits="userSpaceOnUse">
      <stop
         offset="0"
         stop-color="#ebebeb"
         id="stop2" />
      <stop
         offset="1"
         stop-color="#e1e1e1"
         id="stop4" />
    </linearGradient>
    <linearGradient
       id="b8b09e1c-faa9-4d01-91c8-df52100a3bde-3"
       x1="67.500008"
       x2="67.500008"
       y2="380"
       gradientUnits="userSpaceOnUse">
      <stop
         offset="0"
         stop-color="#ebebeb"
         id="stop2-2" />
      <stop
         offset="1"
         stop-color="#e1e1e1"
         id="stop4-1" />
    </linearGradient>
    <linearGradient
       id="b8b09e1c-faa9-4d01-91c8-df52100a3bde-5"
       x1="67.500008"
       x2="67.500008"
       y2="380"
       gradientUnits="userSpaceOnUse">
      <stop
         offset="0"
         stop-color="#ebebeb"
         id="stop2-3" />
      <stop
         offset="1"
         stop-color="#e1e1e1"
         id="stop4-16" />
    </linearGradient>
    <linearGradient
       id="b8b09e1c-faa9-4d01-91c8-df52100a3bde-6"
       x1="67.500008"
       x2="67.500008"
       y2="380"
       gradientUnits="userSpaceOnUse">
      <stop
         offset="0"
         stop-color="#ebebeb"
         id="stop2-4" />
      <stop
         offset="1"
         stop-color="#e1e1e1"
         id="stop4-7" />
    </linearGradient>
  </defs>
  <sodipodi:namedview
     id="base"
     pagecolor="#ffffff"
     bordercolor="#666666"
     borderopacity="1.0"
     inkscape:pageopacity="0.0"
     inkscape:pageshadow="2"
     inkscape:zoom="0.91314775"
     inkscape:cx="71.119573"
     inkscape:cy="305.87923"
     inkscape:document-units="mm"
     inkscape:current-layer="layer3"
     inkscape:document-rotation="0"
     showgrid="false"
     fit-margin-top="0"
     fit-margin-left="0"
     fit-margin-right="0"
     fit-margin-bottom="0"
     inkscape:window-width="1252"
     inkscape:window-height="915"
     inkscape:window-x="0"
     inkscape:window-y="25"
     inkscape:window-maximized="0"
     inkscape:snap-global="true"
     inkscape:snap-bbox="false" />
  <metadata
     id="metadata5">
    <rdf:RDF>
      <cc:Work
         rdf:about="">
        <dc:format>image/svg+xml</dc:format>
        <dc:type
           rdf:resource="http://purl.org/dc/dcmitype/StillImage" />
        <dc:title></dc:title>
      </cc:Work>
    </rdf:RDF>
  </metadata>
  <g
     id="layer2"
     inkscape:label="visual"
     transform="matrix(0.99582081,0,0,1.0000057,-0.32900481,-0.56274465)"
     style="display:inline"
     inkscape:groupmode="layer">
    <rect
       style="opacity:1;fill:#b3b3b3;stroke:#000000;stroke-width:0.348399;stroke-opacity:0.39"
       id="rect174"
       width="30.259521"
       height="128.00542"
       x="0.50495046"
       y="0.73657584" />
    <g
       id="ba5d43d3-4b1f-4edf-a122-4eca169245ef"
       data-name="components"
       style="display:inline"
       transform="matrix(0.26458333,0,0,0.26458333,-2.5782685,2.2212353)">
      <g
         aria-label="ddsp"
         id="text2776"
         style="font-size:39.9999px;line-height:1.25;font-family:DecimaMonoW01-Regular;-inkscape-font-specification:'DecimaMonoW01-Regular, Normal'">
        <path
           id="path70"
           d="m 38.602627,252.24176 c -0.910457,-0.27871 -2.996006,0.61766 -2.999993,-0.56752 0.203193,-1.9781 -2.627352,1.77957 -4.04249,0.94002 -4.475289,0.68314 -9.162554,-3.01921 -8.797478,-7.71083 0.203854,-3.51875 -0.790189,-7.48309 1.724996,-10.41912 2.637866,-3.1684 7.995952,-3.67864 11.034973,-0.8025 0,-3.14666 0,-6.29332 0,-9.43998 0.910197,0.24258 2.798783,-0.49322 3.079992,0.37835 0,9.20719 0,18.41439 0,27.62158 z m -12.559969,-6.75998 c -0.195498,4.0563 5.486753,5.74033 8.07998,3.03999 2.016022,-2.10902 1.052651,-5.1931 1.279997,-7.80932 0.27814,-2.35497 -0.534225,-5.15591 -3.129992,-5.78815 -2.907811,-1.01981 -6.621996,1.20132 -6.229985,4.49584 0,2.02054 0,4.04109 0,6.06164 z" />
        <path
           id="path72"
           d="m 62.586943,252.24176 c -0.910457,-0.27871 -2.996006,0.61766 -2.999993,-0.56752 0.203193,-1.9781 -2.627352,1.77957 -4.04249,0.94002 -4.475289,0.68314 -9.162554,-3.01921 -8.797478,-7.71083 0.203854,-3.51875 -0.790189,-7.48309 1.724996,-10.41912 2.637866,-3.1684 7.995952,-3.67864 11.034972,-0.8025 0,-3.14666 0,-6.29332 0,-9.43998 0.910197,0.24258 2.798784,-0.49322 3.079993,0.37835 0,9.20719 0,18.41439 0,27.62158 z m -12.559969,-6.75998 c -0.195498,4.0563 5.486753,5.74033 8.07998,3.03999 2.016022,-2.10902 1.052651,-5.1931 1.279997,-7.80932 0.27814,-2.35497 -0.534226,-5.15591 -3.129993,-5.78815 -2.907811,-1.01981 -6.621995,1.20132 -6.229984,4.49584 0,2.02054 0,4.04109 0,6.06164 z" />
        <path
           id="path74"
           d="m 82.491269,237.9618 c 0.07371,-3.57501 -5.692277,-4.51638 -6.902483,-1.2975 0.101978,4.29593 6.371899,3.35995 8.532479,6.23748 3.112649,2.79355 1.383017,8.26542 -2.509994,9.29998 -3.840535,1.36236 -9.187843,-0.17291 -10.039975,-4.61999 -1.060325,-2.26862 1.217847,-1.57162 2.528426,-1.65999 0.883336,1.47588 2.566245,4.81537 5.626554,3.78749 4.447091,-0.72754 2.549377,-6.09096 -1.134997,-6.25749 -3.699514,-0.75312 -8.007921,-4.14004 -5.939986,-8.28998 2.501646,-4.79718 10.885726,-4.40334 12.759969,0.76 1.482502,2.42402 -0.805912,2.10586 -2.4376,2.04 -0.160798,0 -0.321595,0 -0.482393,0 z" />
        <path
           id="path76"
           d="m 94.715616,232.24181 c 0.910457,0.27871 2.996006,-0.61766 2.999992,0.56752 -0.203193,1.9781 2.627352,-1.77957 4.042492,-0.94002 4.51478,-0.67007 9.2588,3.12443 8.79748,7.86 -0.17913,3.67924 0.84017,7.98375 -2.24,10.79245 -2.71631,2.72768 -7.69749,2.98874 -10.519972,0.28 0,2.87999 0,5.75999 0,8.63998 -0.910197,-0.24258 -2.798783,0.49322 -3.079992,-0.37835 0,-8.94052 0,-17.88105 0,-26.82158 z m 12.559964,6.75998 c 0.12547,-4.03001 -5.46447,-5.73493 -8.079975,-3.03999 -2.005932,2.04063 -1.057959,5.06542 -1.279997,7.62015 -0.148057,2.1206 0.08051,4.66072 2.292492,5.66732 2.6998,1.43223 6.8141,-0.0172 7.04498,-3.35499 0.0508,-2.29613 0.009,-4.59537 0.0225,-6.89249 z" />
      </g>
    </g>
  </g>
  <g
     id="layer3"
     inkscape:label="components"
     style="display:inline"
     inkscape:groupmode="layer">
    <circle
       style="fill:#00ff00"
       id="path1274"
       cx="6.8090935"
       cy="10.575825"
       r="2.5387318"
       inkscape:label="PITCH" />
    <circle
       style="fill:#00ff00"
       id="path1274-4"
       cx="22.310646"
       cy="10.430951"
       r="2.5387318"
       inkscape:label="LOUDNESS" />
    <circle
       style="fill:#0000ff"
       id="path1274-0"
       cx="15.06693"
       cy="113.58147"
       r="2.5387318"
       inkscape:label="OUTPUT" />
  </g>
</svg>
